<svg xmlns="http://www.w3.org/2000/svg" xmlns:xlink="http://www.w3.org/1999/xlink" width="503.3" height="582.8" viewBox="0 0 503.3 582.8"><defs><path id="a" d="M501.8 553.2c0 138.1-111.9 250-250 250s-250-111.9-250-250v-300c0-138.1 111.9-250 250-250s250 111.9 250 250v300z"/></defs><clipPath id="b"><use xlink:href="#a" overflow="visible"/></clipPath><g clip-path="url(#b)"><path fill="#FFF" d="M612.9 577.8l-62.6-35.3-49.8 40-49.9-40-49.8 40-49.8-40-49.9 40-49.8-40-49.8 40-49.9-40-49.8 40-49.8-40-49.8 40-49.9-40-49.8 40-37-35.4-32.9-26.3 40-41.7-40-41.7 40-41.7-40-41.7 40-41.7-40-41.7 40-41.7-40-41.7 40-41.7-40-41.7 40-41.6-40-41.7 40-41.7-32.8-57.1 62.7 35.4 49.8-40 49.8 40 49.9-40 49.8 40 49.8-40 49.8 40 49.9-40 49.8 40 49.8-40 49.9 40 49.8-40 49.8 40 49.9-40 37 35.3 32.8 26.3-40 41.7 40 41.7-40 41.7 40 41.7-40 41.7 40 41.7-40 41.7 40 41.7-40 41.7 40 41.7-40 41.7 40 41.7-39.8 44.3z"/><path fill="none" stroke="#CCC" stroke-miterlimit="10" d="M612.9 577.8l-62.6-35.3-49.8 40-49.9-40-49.8 40-49.8-40-49.9 40-49.8-40-49.8 40-49.9-40-49.8 40-49.8-40-49.8 40-49.9-40-49.8 40-37-35.4-32.9-26.3 40-41.7-40-41.7 40-41.7-40-41.7 40-41.7-40-41.7 40-41.7-40-41.7 40-41.7-40-41.7 40-41.6-40-41.7 40-41.7-32.8-57.1 62.7 35.4 49.8-40 49.8 40 49.9-40 49.8 40 49.8-40 49.8 40 49.9-40 49.8 40 49.8-40 49.9 40 49.8-40 49.8 40 49.9-40 37 35.3 32.8 26.3-40 41.7 40 41.7-40 41.7 40 41.7-40 41.7 40 41.7-40 41.7 40 41.7-40 41.7 40 41.7-40 41.7 40 41.7-39.8 44.3z"/></g><use xlink:href="#a" overflow="visible" fill="none" stroke="#CCC" stroke-miterlimit="10"/><circle stroke="#CCC" stroke-miterlimit="10" cx="203.9" cy="243.5" r="37.5"/><circle stroke="#CCC" stroke-miterlimit="10" cx="300.9" cy="243.5" r="37.5"/></svg>